<?xml version="1.0" standalone="no"?>
<!DOCTYPE svg PUBLIC "-//W3C//DTD SVG 20010904//EN"
 "http://www.w3.org/TR/2001/REC-SVG-20010904/DTD/svg10.dtd">
<svg version="1.0" xmlns="http://www.w3.org/2000/svg"
 width="540.000000pt" height="501.000000pt" viewBox="0 0 540.000000 501.000000"
 preserveAspectRatio="xMidYMid meet">
<metadata>
Created by potrace 1.16, written by Peter Selinger 2001-2019
</metadata>
<g transform="translate(0.000000,501.000000) scale(0.100000,-0.100000)"
fill="#000000" stroke="none">
<path d="M149 5008 c-1 -2 -3 -25 -5 -52 -4 -44 -34 -105 -56 -114 -5 -2 -19
-25 -33 -51 -13 -26 -31 -53 -39 -60 -11 -9 -16 -30 -16 -67 0 -64 17 -73 22
-11 3 39 5 42 33 42 30 0 43 15 51 57 6 28 43 94 64 113 11 10 20 24 20 32 0
7 7 13 15 13 8 0 15 7 15 15 0 8 5 15 11 15 18 0 37 31 31 52 -3 15 -14 18
-58 18 -30 0 -54 -1 -55 -2z"/>
<path d="M1770 5002 c0 -14 -89 -106 -96 -99 -8 8 -34 -11 -34 -25 0 -6 7 -8
15 -4 8 3 15 2 15 -3 0 -9 -48 -21 -86 -21 -15 0 -33 -13 -50 -36 -15 -19 -43
-44 -63 -54 -20 -10 -58 -39 -86 -64 -27 -25 -53 -46 -57 -46 -4 0 -16 -8 -26
-17 -38 -36 -60 -51 -66 -46 -3 4 -6 1 -6 -5 0 -7 -5 -12 -11 -12 -6 0 -28
-13 -49 -30 -21 -16 -41 -30 -45 -30 -3 0 -25 -13 -48 -29 -23 -15 -47 -26
-53 -24 -6 2 -35 -25 -65 -59 -30 -35 -64 -71 -77 -82 -34 -27 -19 -32 18 -6
37 26 44 23 30 -14 -5 -15 -10 -38 -10 -51 0 -20 -11 -29 -52 -49 -29 -14 -48
-25 -41 -25 6 -1 21 -15 33 -31 20 -29 21 -32 6 -55 -9 -14 -29 -28 -44 -31
-32 -8 -50 -25 -127 -124 -73 -94 -84 -109 -65 -92 17 15 50 16 50 1 0 -5 -4
-8 -9 -5 -10 6 -25 -10 -34 -37 -4 -11 -3 -16 3 -12 12 8 13 10 -5 -49 -8 -27
-15 -64 -15 -81 0 -24 -10 -43 -38 -71 -21 -22 -47 -51 -57 -67 -17 -26 -17
-27 0 -20 13 4 16 3 11 -5 -5 -8 -2 -10 8 -6 9 3 16 10 16 16 0 5 -4 6 -10 3
-26 -16 -6 24 22 45 28 20 30 21 24 4 -5 -10 -11 -28 -14 -39 -3 -11 -11 -24
-19 -28 -7 -5 -11 -13 -8 -18 4 -5 -3 -35 -15 -66 -23 -63 -17 -80 23 -62 22
10 29 8 48 -10 13 -11 27 -21 32 -21 5 0 44 25 87 55 43 30 81 55 85 55 12 0
-69 -70 -122 -106 -29 -19 -53 -40 -53 -45 0 -6 -9 -24 -20 -39 -19 -27 -19
-29 -3 -33 10 -2 30 8 45 21 29 26 50 24 28 -3 -13 -15 -16 -87 -5 -105 3 -5
16 -10 29 -10 45 0 76 -71 43 -98 -42 -35 -117 -15 -117 31 0 19 -4 18 -33
-16 -28 -34 -32 -45 -28 -80 3 -23 6 -34 9 -24 2 10 9 16 15 14 8 -2 13 -36
15 -94 l3 -91 39 12 c21 6 56 27 77 46 22 19 48 42 59 50 18 14 18 14 4 -5 -8
-11 -30 -35 -49 -53 -32 -30 -34 -35 -21 -55 7 -12 12 -41 11 -64 -1 -27 3
-43 10 -43 7 0 18 -8 25 -17 12 -16 14 -11 15 37 l1 55 14 -79 c8 -44 23 -89
34 -103 11 -14 20 -30 20 -36 0 -15 71 -151 83 -159 6 -4 14 -5 18 -2 4 2 11
-1 15 -7 5 -8 9 -8 14 1 6 9 12 6 21 -11 18 -35 82 -119 87 -115 2 2 -8 28
-23 58 l-26 53 30 -32 c17 -18 37 -33 45 -33 8 0 23 -11 34 -25 11 -14 24 -25
28 -25 5 0 53 -45 107 -99 55 -55 97 -91 94 -80 -6 22 11 26 19 4 4 -8 10 -15
15 -15 18 0 8 25 -23 57 -38 39 -31 52 16 29 41 -19 53 -20 59 -3 5 15 34 -16
88 -97 21 -33 39 -53 40 -45 1 8 11 -16 23 -54 12 -37 25 -64 29 -61 4 4 4 32
1 63 -5 55 -5 55 10 26 8 -16 15 -23 15 -15 1 12 4 11 12 -4 6 -10 9 -33 6
-52 -7 -43 9 -44 27 -1 14 31 14 30 17 -53 1 -47 1 -96 0 -110 -1 -19 1 -22 8
-11 5 8 15 53 21 100 6 47 14 106 17 131 l6 45 8 -40 c4 -22 8 -62 9 -90 0
-43 2 -47 12 -30 6 11 22 31 35 44 12 13 23 28 23 32 0 14 -18 11 -23 -3 -2
-7 -8 -10 -12 -6 -14 13 71 121 99 126 16 3 16 1 -3 -19 -12 -13 -21 -28 -21
-35 0 -7 -10 -20 -22 -30 -18 -13 -19 -15 -4 -10 14 5 16 3 9 -6 -5 -7 -13
-22 -16 -33 -6 -17 -3 -16 15 5 12 14 19 18 15 10 -3 -8 -17 -42 -31 -75 -14
-33 -25 -73 -24 -90 1 -26 1 -27 5 -5 14 89 114 261 133 230 8 -13 13 -7 51
70 32 62 20 8 -16 -74 -19 -44 -33 -81 -31 -84 3 -2 33 33 63 77 2 2 6 2 9 -2
4 -3 -5 -29 -20 -58 -14 -28 -23 -56 -20 -60 3 -5 1 -9 -4 -9 -5 0 -22 -17
-38 -37 l-29 -38 31 22 c16 12 41 43 54 70 31 61 64 114 56 89 -4 -11 -1 -23
6 -27 7 -4 9 -11 5 -16 -5 -4 -12 -1 -17 7 -6 8 -10 11 -10 5 0 -5 4 -16 9
-23 6 -11 14 -6 30 17 12 17 19 31 14 31 -4 0 -3 4 2 8 6 4 18 24 28 45 9 21
22 35 27 32 6 -3 10 1 10 9 0 26 17 18 25 -11 3 -14 13 -36 21 -47 13 -19 14
-15 9 42 -4 44 -3 62 4 57 7 -4 11 16 11 60 0 46 6 78 20 105 11 22 22 40 24
40 2 0 1 -21 -2 -46 -6 -52 11 -55 21 -4 4 17 21 60 39 97 21 44 33 87 36 124
l4 57 -48 7 c-125 16 -135 21 -230 113 -49 48 -113 113 -141 146 l-53 59 0 76
c0 131 41 235 106 266 37 17 61 16 146 -11 59 -19 116 -79 148 -158 20 -47 26
-54 30 -36 4 19 10 14 43 -37 36 -56 73 -90 84 -79 3 2 -7 21 -22 40 -33 44
-27 45 27 6 22 -16 46 -30 52 -30 6 0 24 -11 40 -25 34 -29 46 -33 23 -7 -10
10 -17 22 -17 26 0 4 -13 27 -30 51 -30 44 -40 69 -18 47 7 -7 18 -12 25 -12
9 0 7 12 -8 40 -20 39 -56 59 -78 46 -17 -11 -89 41 -93 66 -8 56 4 99 35 126
78 69 217 215 223 235 18 59 84 135 84 97 0 -5 -4 -10 -10 -10 -5 0 -17 -11
-26 -25 -15 -23 -14 -25 9 -50 21 -24 25 -25 31 -10 4 11 0 22 -10 30 -10 7
-15 19 -11 29 8 20 27 21 27 1 0 -8 5 -15 11 -15 7 0 9 10 4 28 -4 15 -8 33
-8 40 0 7 -8 10 -19 6 -10 -3 -18 -1 -18 5 0 6 9 11 21 11 11 0 17 4 14 10 -3
6 1 7 10 4 9 -4 23 1 33 9 9 8 29 19 45 22 15 4 27 9 27 12 0 4 -21 32 -61 81
-20 24 -31 13 -25 -23 4 -20 4 -44 1 -55 -7 -23 -57 -41 -94 -34 -15 3 -44 1
-63 -4 -23 -6 -40 -6 -46 0 -6 6 -24 -5 -50 -28 l-41 -37 17 -31 c32 -58 34
-60 49 -25 9 22 18 29 29 25 9 -3 22 -6 30 -6 21 0 17 -21 -12 -63 -24 -36
-27 -37 -40 -20 -12 16 -13 16 -14 1 0 -9 -3 -24 -7 -34 -5 -12 -3 -15 6 -9
18 11 -1 -21 -39 -65 -21 -24 -30 -29 -30 -18 0 10 12 29 26 43 31 31 25 43
-12 27 -29 -14 -59 -2 -82 30 -13 18 -16 16 -56 -27 -37 -39 -48 -45 -82 -45
-56 0 -87 24 -81 64 2 17 7 38 11 47 5 12 0 18 -24 22 -64 13 -48 76 24 98 51
15 57 24 23 33 -29 7 -51 47 -44 78 5 17 22 32 55 47 55 26 76 23 122 -16 17
-13 30 -20 30 -14 0 5 -4 13 -10 16 -18 11 -11 47 11 52 16 5 19 12 17 42 -3
31 -7 37 -33 42 -18 4 -22 7 -10 8 11 0 69 26 128 56 73 38 119 55 145 55 l37
0 0 60 c1 33 -3 60 -8 60 -5 0 -5 10 -2 21 5 16 3 20 -6 17 -8 -3 -15 -13 -15
-24 -1 -10 -2 -25 -3 -31 -1 -7 -11 -12 -23 -12 -13 1 -31 -2 -40 -6 -17 -7
-19 -4 -22 28 -1 6 -7 18 -13 25 -7 7 -13 20 -13 28 0 18 35 48 58 51 9 1 26
5 38 8 14 4 30 -2 52 -22 25 -21 40 -27 67 -24 25 2 37 -2 41 -13 3 -9 16 -16
28 -16 34 0 46 -20 46 -74 l0 -50 29 32 c38 41 57 40 82 -3 26 -44 54 -48 46
-6 -6 29 7 51 30 51 21 0 46 -48 48 -92 2 -34 -2 -46 -21 -61 -13 -10 -24 -26
-24 -35 0 -8 -9 -25 -20 -37 -16 -17 -18 -27 -12 -45 l9 -23 20 29 c11 16 32
59 48 96 28 68 55 96 55 57 0 -16 4 -19 18 -14 46 19 52 18 52 -9 0 -17 5 -26
15 -26 21 0 31 29 17 49 -7 9 -18 27 -24 41 -16 32 -29 41 -50 34 -27 -8 -85
24 -98 55 -14 36 4 79 37 87 26 7 27 8 13 35 -10 17 -13 18 -38 5 -15 -7 -52
-17 -82 -21 -30 -4 -74 -14 -98 -22 -24 -8 -51 -12 -60 -10 -9 2 10 12 43 22
l60 19 -46 6 c-52 6 -75 21 -84 53 -4 12 -13 36 -22 53 -21 42 -11 80 28 99
27 15 35 15 86 0 68 -20 99 -49 108 -103 4 -23 11 -42 16 -42 5 0 9 -7 9 -15
0 -33 77 -4 105 39 23 36 59 45 84 22 16 -15 21 -15 54 -1 21 8 37 19 37 24 0
5 -19 24 -42 43 -23 18 -59 50 -80 70 -42 41 -94 75 -70 45 8 -9 12 -21 10
-27 -4 -12 -33 8 -145 98 -43 35 -91 74 -108 87 l-30 24 35 -8 c19 -5 44 -12
55 -16 11 -5 3 4 -17 18 -20 14 -65 36 -100 48 -68 25 -93 43 -83 59 5 9 -24
15 -49 11 -4 -1 -13 2 -20 8 -6 5 -72 9 -147 9 -140 0 -215 7 -225 23 -3 5
-29 9 -57 9 -39 0 -48 3 -37 11 15 11 11 10 -157 -7 -47 -5 -63 -3 -63 6 0 6
-14 0 -31 -14 -30 -25 -66 -36 -54 -16 3 6 1 10 -4 10 -6 0 -11 -4 -11 -9 0
-5 -8 -11 -18 -13 -10 -3 -30 -30 -45 -61 -15 -30 -34 -60 -42 -67 -22 -18
-18 3 4 29 12 13 23 46 27 79 4 31 13 66 20 78 8 11 15 34 16 50 2 16 11 36
21 44 10 8 24 36 32 63 l14 47 -84 0 c-47 0 -85 -4 -85 -8z m29 -194 c-7 -24
-14 -54 -15 -68 -2 -13 -10 -30 -18 -36 -9 -6 -12 -15 -8 -19 4 -4 -3 -3 -15
4 -27 14 -46 14 -38 1 3 -6 -1 -7 -9 -4 -9 3 -16 2 -16 -3 0 -6 -33 -16 -72
-22 -73 -13 -188 -59 -220 -88 -9 -8 -22 -12 -27 -8 -6 3 -25 -1 -43 -9 -40
-20 -41 -20 -26 6 18 32 51 58 65 53 7 -2 12 0 10 6 -1 6 55 42 126 80 130 70
192 110 215 141 8 11 26 18 47 18 19 0 37 6 42 13 14 22 15 -18 2 -65z m-216
-438 c3 -18 12 -26 36 -31 17 -4 40 -17 51 -29 25 -29 13 -53 -39 -80 -37 -19
-38 -21 -34 -62 6 -51 -12 -74 -51 -64 -18 4 -26 14 -28 34 -2 16 -9 27 -18
27 -8 0 -20 6 -26 14 -10 12 -13 11 -24 -8 -6 -13 -10 -32 -7 -42 4 -13 0 -19
-13 -19 -21 0 -55 46 -40 55 6 3 10 15 10 26 0 15 7 19 31 19 24 0 30 4 27 18
-2 9 -13 18 -26 20 -28 4 -38 40 -22 86 6 20 14 36 16 36 13 0 64 -66 59 -77
-2 -7 0 -13 6 -13 6 0 8 -11 4 -29 -4 -18 -2 -32 6 -37 7 -4 10 -3 5 4 -3 6
-2 13 4 17 5 3 10 17 10 30 0 13 5 27 10 30 6 4 9 19 8 35 -1 17 6 38 17 49
21 24 23 23 28 -9z m915 -198 c13 -17 21 -46 22 -77 3 -78 2 -79 -16 -64 -10
8 -13 22 -10 38 3 14 3 20 0 13 -3 -6 -11 -9 -17 -5 -6 4 -8 0 -4 -9 4 -12 0
-14 -16 -10 -21 5 -21 4 -4 -15 23 -27 22 -33 -10 -33 -26 0 -26 -1 -7 -15 18
-14 18 -14 -6 -15 -14 -1 -41 -3 -61 -6 -31 -4 -39 0 -54 22 -10 16 -13 29 -7
33 5 3 11 15 14 26 3 17 11 20 55 20 52 -1 54 3 28 35 -16 18 -2 60 19 60 7 0
16 7 20 15 9 23 33 18 54 -13z m-1319 -117 c16 -8 40 -28 54 -45 14 -16 28
-30 31 -30 3 0 6 15 6 34 0 37 19 60 44 50 21 -8 39 -78 33 -126 -3 -25 0 -41
9 -49 8 -6 14 -20 14 -30 0 -23 3 -23 40 -4 69 36 124 28 188 -29 40 -35 17
-119 -24 -85 -13 10 -17 10 -24 0 -4 -8 -13 -10 -19 -7 -7 5 -11 -5 -11 -28 0
-41 3 -42 55 -21 20 9 44 15 53 14 44 -4 72 3 106 26 22 15 51 25 72 25 19 0
63 6 97 14 128 29 263 55 302 58 22 1 43 6 46 11 4 5 15 7 25 5 16 -4 15 -7
-9 -16 -15 -6 -42 -14 -60 -16 -33 -5 -71 -14 -97 -23 -8 -3 -30 -8 -49 -10
-19 -2 -42 -8 -52 -13 -10 -6 -25 -7 -33 -4 -10 4 -28 -7 -48 -28 -27 -28 -40
-34 -70 -33 -20 1 -35 -2 -32 -7 3 -4 -2 -8 -11 -8 -9 0 -26 -5 -38 -12 -12
-7 -26 -13 -32 -14 -5 -1 -22 -5 -36 -9 -16 -4 -30 -2 -33 4 -4 7 1 11 13 11
11 0 23 5 26 10 8 13 5 13 -43 -4 -28 -10 -43 -11 -50 -4 -8 8 -18 6 -36 -6
-14 -9 -42 -16 -63 -16 -21 -1 -49 -7 -62 -14 -13 -7 -32 -11 -41 -9 -9 2 -22
-3 -29 -11 -17 -20 -31 -21 -31 -2 0 19 -57 18 -87 -1 -12 -8 -30 -13 -40 -11
-12 3 1 14 42 33 37 17 54 30 43 32 -19 5 -43 57 -33 73 4 7 -1 9 -19 4 -19
-4 -31 0 -51 20 -21 21 -30 24 -50 16 -69 -26 -102 47 -45 100 26 24 28 29 14
41 -38 31 -59 108 -37 138 17 25 43 27 82 6z m231 -531 c-8 -8 -27 -21 -44
-29 -33 -14 -134 -95 -120 -95 5 0 5 -4 -1 -8 -5 -4 -26 -25 -45 -47 -20 -23
-24 -30 -9 -17 27 23 154 77 143 61 -10 -17 -83 -59 -103 -59 -10 0 -24 -7
-31 -15 -7 -9 -21 -13 -31 -10 -11 4 -19 2 -19 -4 0 -5 -24 -35 -54 -66 -30
-31 -60 -70 -66 -86 -17 -40 -38 -38 -32 3 3 23 23 50 66 93 34 33 80 85 103
115 51 69 60 77 158 133 84 49 106 57 85 31z m630 -1138 c0 -7 3 -27 6 -44 5
-25 0 -37 -31 -71 -62 -69 -145 -77 -145 -14 0 48 27 93 67 109 21 8 45 19 53
24 23 14 50 12 50 -4z"/>
<path d="M4370 4992 l-35 -14 23 -18 c30 -24 28 -41 -9 -76 l-31 -29 -19 24
c-10 13 -19 29 -19 37 0 17 -22 18 -37 3 -9 -9 -6 -17 13 -32 14 -11 23 -25
21 -31 -3 -7 1 -20 8 -30 16 -21 39 -16 75 16 14 13 51 43 83 67 59 45 69 61
40 61 -10 0 -31 8 -48 18 -27 17 -33 17 -65 4z"/>
<path d="M5270 4934 c-14 -7 -38 -14 -55 -14 -16 0 -35 -4 -41 -8 -15 -10 -25
-42 -14 -42 17 0 11 -21 -12 -41 -13 -10 -35 -18 -50 -19 -40 0 -80 -21 -73
-38 9 -23 -17 -82 -36 -82 -9 0 -22 -7 -29 -15 -7 -8 -23 -15 -36 -15 -12 0
-25 -4 -29 -10 -3 -5 -12 -7 -19 -4 -23 9 -28 -14 -7 -33 10 -10 21 -28 25
-39 7 -23 62 -39 81 -23 6 4 20 8 30 8 11 -1 47 6 80 14 33 9 87 15 120 14 56
-2 63 1 116 41 31 23 61 54 68 68 6 14 11 74 11 136 l0 110 -24 -6 c-14 -3
-28 -2 -31 4 -8 14 -45 11 -75 -6z"/>
<path d="M4043 4329 c-30 -14 -48 -17 -61 -10 -12 6 -23 5 -37 -5 -10 -8 -36
-14 -57 -14 -25 0 -61 -12 -99 -32 -44 -24 -62 -29 -68 -20 -5 9 -24 8 -82 -5
-40 -9 -104 -16 -140 -17 -73 -1 -92 -11 -108 -57 -13 -37 -11 -38 94 -42 58
-3 88 0 110 12 17 8 48 21 70 27 54 16 105 34 135 49 14 7 50 18 80 25 30 7
68 19 83 27 20 10 44 12 82 8 40 -5 58 -3 77 9 14 9 28 13 31 9 4 -3 7 -1 7 5
0 12 -53 53 -67 51 -4 0 -27 -9 -50 -20z"/>
<path d="M5075 4155 c-14 -20 -43 -43 -63 -53 -28 -13 -38 -25 -43 -50 -4 -18
-16 -43 -27 -55 -11 -12 -27 -37 -36 -55 -9 -18 -21 -30 -26 -27 -5 3 -21 -11
-37 -32 -15 -21 -35 -47 -45 -58 -122 -148 -175 -219 -199 -267 -41 -81 -36
-104 7 -32 19 32 52 79 73 104 20 25 54 70 74 102 21 31 65 81 97 112 33 30
60 60 60 67 0 23 127 192 176 232 19 16 34 33 34 38 0 19 -18 8 -45 -26z"/>
<path d="M3388 3962 c-27 -5 -21 -19 8 -19 14 0 29 -4 34 -9 11 -13 20 -145 9
-138 -5 3 -9 11 -9 19 0 22 -15 26 -50 14 -41 -15 -53 -3 -40 40 9 31 8 32
-18 29 -20 -2 -28 -9 -30 -26 -5 -34 31 -68 86 -83 l47 -12 -35 -7 c-24 -4
-41 -1 -52 9 -10 8 -18 10 -18 5 1 -13 47 -64 59 -64 14 0 31 -33 31 -59 0
-12 5 -21 11 -21 8 0 10 16 6 50 -8 62 -1 80 28 80 22 0 23 3 18 68 -8 105
-15 127 -44 127 -13 0 -32 -1 -41 -3z"/>
<path d="M410 2968 c-30 -33 -70 -68 -90 -77 -85 -43 -239 -137 -277 -170 -33
-28 -42 -43 -43 -68 l0 -31 55 30 c30 16 55 35 55 43 0 14 86 75 106 75 6 0
27 14 45 32 36 34 94 68 116 68 7 0 13 5 13 11 0 5 5 7 10 4 6 -3 10 -1 10 5
0 6 12 16 28 22 74 32 98 88 33 78 -12 -1 -13 1 -2 13 6 8 8 17 4 20 -5 3 -33
-22 -63 -55z"/>
</g>
</svg>
